<svg xmlns="http://www.w3.org/2000/svg" width="256" height="256" viewBox="0 0 256 256" fill="none">
  <defs>
    <linearGradient id="rupikaGradient" x1="36" y1="20" x2="226" y2="230" gradientUnits="userSpaceOnUse">
      <stop offset="0" stop-color="#6C5CFF"/>
      <stop offset="0.52" stop-color="#4E8BFF"/>
      <stop offset="1" stop-color="#22D39A"/>
    </linearGradient>
    
    <filter id="softGlow" x="-50%" y="-50%" width="200%" height="200%">
      <feGaussianBlur stdDeviation="8" result="blur"/>
      <feColorMatrix in="blur" type="matrix" values="0 0 0 0 0.423  0 0 0 0 0.361  0 0 0 0 1  0 0 0 0.55 0" result="glow"/>
      <feMerge><feMergeNode in="glow"/><feMergeNode in="SourceGraphic"/></feMerge>
    </filter>
    
  </defs>
  <rect width="256" height="256" rx="52" fill="#0B0F1A"/>
  <g filter="url(#softGlow)">
    <path d="M44 34H174C211.555 34 234 56.445 234 94V220H173L128 166H44C23.565 166 12 154.435 12 134V66C12 45.565 23.565 34 44 34Z" fill="url(#rupikaGradient)"/>
    <rect x="44" y="58" width="134" height="16" rx="8" fill="#0B0F1A" opacity="0.92"/>
    <path d="M181 104H244V166H181C163.879 166 150 152.121 150 135C150 117.879 163.879 104 181 104Z" fill="#0B0F1A" opacity="0.92"/>
    <circle cx="197" cy="135" r="11" fill="url(#rupikaGradient)" opacity="0.94"/>
    <rect x="42" y="128" width="16" height="30" rx="3" fill="#0B0F1A" opacity="0.72"/>
    <rect x="68" y="112" width="16" height="46" rx="3" fill="#0B0F1A" opacity="0.72"/>
    <rect x="94" y="94" width="16" height="64" rx="3" fill="#0B0F1A" opacity="0.72"/>
    <path d="M39 115L72 92L94 101L128 68" stroke="#0B0F1A" stroke-width="8" stroke-linecap="round" stroke-linejoin="round" opacity="0.78"/>
    <path d="M128 68L126 91L147 72L128 68Z" fill="#0B0F1A" opacity="0.78"/>
  </g>
</svg>